<?xml version="1.0"?>
<svg xmlns="http://www.w3.org/2000/svg" viewBox="0 0 192 192" width="512" height="512"><g id="_04-box" data-name="04-box"><g id="Glyph"><path d="M120,56V48a16.019,16.019,0,0,0-16-16H88V24h32V8H104V0H88V8A16.019,16.019,0,0,0,72,24v8A16.019,16.019,0,0,0,88,48h16v8H72V72H88v8h16V72A16.019,16.019,0,0,0,120,56Z"/><path d="M76.8,137.6A16.079,16.079,0,0,1,64,144H24v40a8,8,0,0,0,8,8h72V96.547a15.956,15.956,0,0,1-3.2,9.052Z"/><path d="M70.4,132.8l24-32A8,8,0,0,0,88,88H32a8,8,0,0,0-6.4,3.2l-24,32A8,8,0,0,0,8,136H64A8,8,0,0,0,70.4,132.8Z"/><path d="M139.2,137.6l-24-32a15.959,15.959,0,0,1-3.2-9.053V192h48a8,8,0,0,0,8-8V144H152A16.077,16.077,0,0,1,139.2,137.6Z"/><path d="M190.4,123.2l-24-32A8,8,0,0,0,160,88H128a8,8,0,0,0-6.4,12.8l24,32A8,8,0,0,0,152,136h32a8,8,0,0,0,6.4-12.8Z"/><path d="M160,80.11a7.987,7.987,0,0,0,4.437-1.344l24-16-8.875-13.312L168,57.162V32.11H152V57.162l-11.563-7.708-8.875,13.312,24,16A7.992,7.992,0,0,0,160,80.11Z"/><path d="M32,80.11a7.987,7.987,0,0,0,4.437-1.344l24-16L51.562,49.454,40,57.162V32.11H24V57.162L12.437,49.454,3.562,62.766l24,16A7.992,7.992,0,0,0,32,80.11Z"/></g></g></svg>
